<?xml version="1.0" standalone="no"?>
<!DOCTYPE svg PUBLIC "-//W3C//DTD SVG 20010904//EN"
 "http://www.w3.org/TR/2001/REC-SVG-20010904/DTD/svg10.dtd">
<svg version="1.0" xmlns="http://www.w3.org/2000/svg"
 width="700.000000pt" height="700.000000pt" viewBox="0 0 700.000000 700.000000"
 preserveAspectRatio="xMidYMid meet">
<metadata>
Created by potrace 1.14, written by Peter Selinger 2001-2017
</metadata>
<g transform="translate(0.000000,700.000000) scale(0.100000,-0.100000)"
fill="#000000" stroke="none">
<path d="M455 6990 c-195 -40 -361 -188 -427 -378 -33 -96 -33 -258 0 -354 44
-128 144 -248 263 -316 58 -33 189 -72 241 -72 l28 0 0 -2935 0 -2935 2375 0
2375 0 0 340 0 340 225 0 225 0 0 225 0 224 498 3 497 3 63 34 c74 40 115 84
151 161 35 74 37 201 5 271 -26 56 -85 123 -136 156 -80 50 -116 53 -615 53
l-463 0 0 2338 c0 1964 -3 2348 -14 2403 -23 108 -71 194 -156 279 -86 87
-147 122 -256 150 -76 20 -117 20 -2458 19 -1310 -1 -2399 -5 -2421 -9z m4255
-266 c-55 -88 -75 -166 -74 -294 1 -127 17 -189 74 -281 l30 -49 -2133 2
-2132 3 -57 28 c-155 76 -228 260 -166 424 29 79 104 156 183 188 l60 25 2122
0 2123 0 -30 -46z m604 25 c73 -27 148 -96 183 -167 l28 -57 3 -2357 2 -2358
-110 0 -110 0 0 2145 0 2145 -90 0 c-66 0 -104 5 -144 21 -69 25 -149 96 -184
163 -24 46 -27 62 -27 151 0 86 3 106 24 145 43 83 127 155 211 181 51 15 158
10 214 -12z m-234 -2909 l0 -2030 -1588 0 -1587 0 -495 -165 c-272 -91 -502
-168 -510 -171 -8 -4 212 -82 490 -175 l505 -169 1592 0 1593 0 0 -450 0 -450
-2145 0 -2145 0 0 2820 0 2820 2145 0 2145 0 0 -2030z m680 -2370 l0 -110
-1865 0 -1865 0 0 110 0 110 1865 0 1865 0 0 -110z m450 0 l0 -110 -115 0
-115 0 0 110 0 110 115 0 115 0 0 -110z m531 72 c44 -50 38 -122 -15 -164 -17
-15 -43 -18 -153 -18 l-133 0 0 111 0 111 136 -4 136 -3 29 -33z m-4931 -78
c0 -60 -2 -65 -19 -59 -118 37 -184 64 -171 69 49 20 158 55 173 55 14 1 17
-9 17 -65z m3720 -449 l0 -115 -110 0 -110 0 0 115 0 115 110 0 110 0 0 -115z"/>
<path d="M1655 5256 l-290 -244 -78 76 -77 77 -83 -83 -82 -82 151 -151 151
-151 369 306 c203 169 373 313 378 320 6 9 -11 37 -59 95 -38 44 -73 81 -79
81 -6 -1 -141 -110 -301 -244z"/>
<path d="M2482 5308 l3 -113 848 -3 847 -2 0 115 0 115 -850 0 -851 0 3 -112z"/>
<path d="M4400 5305 l0 -115 228 2 227 3 3 113 3 112 -231 0 -230 0 0 -115z"/>
<path d="M2480 4855 l0 -115 960 0 960 0 0 115 0 115 -960 0 -960 0 0 -115z"/>
<path d="M1655 4125 l-290 -244 -78 77 -77 77 -80 -80 -80 -80 149 -149 c141
-140 151 -148 170 -135 48 33 730 605 730 612 1 13 -131 167 -143 166 -6 0
-141 -110 -301 -244z"/>
<path d="M2482 4178 l3 -113 1185 0 1185 0 3 113 3 112 -1191 0 -1191 0 3
-112z"/>
<path d="M2480 3725 l0 -115 228 2 227 3 3 113 3 112 -231 0 -230 0 0 -115z"/>
<path d="M3160 3725 l0 -115 848 2 847 3 3 113 3 112 -851 0 -850 0 0 -115z"/>
<path d="M1655 2995 l-290 -244 -78 77 -77 77 -80 -80 -80 -80 149 -149 c137
-137 151 -148 168 -135 93 73 733 611 733 615 0 13 -133 164 -143 163 -7 0
-142 -110 -302 -244z"/>
<path d="M2482 3048 l3 -113 1185 0 1185 0 3 113 3 112 -1191 0 -1191 0 3
-112z"/>
<path d="M2482 2598 l3 -113 848 -3 847 -2 0 115 0 115 -850 0 -851 0 3 -112z"/>
<path d="M4400 2595 l0 -115 228 2 227 3 3 113 3 112 -231 0 -230 0 0 -115z"/>
</g>
</svg>
